# xmcd
#
# Track frame offsets:
#	150
#	72808
#	107142
#	170419
#	219612
#	278479
#	315182
#
# Disc length: 4432 seconds
#
# Revision: 1
# Processed by: cddbd v1.5.2PL0 Copyright (c) Steve Scherf et al.
# Submitted via: audiograbber 1.83.01
#
DISCID=59114e07
DTITLE=Grateful Dead - 72-12-15 Long Beach Arena, Long Beach CA
DYEAR=1900
DGENRE=
TTITLE0=He's Gone
TTITLE1=Truckin'
TTITLE2=Jam
TTITLE3=Dark Star
TTITLE4=Morning Dew
TTITLE5=Sugar Magnolia
TTITLE6=Johnny B Goode
EXTD=
EXTT0=
EXTT1=
EXTT2=
EXTT3=
EXTT4=
EXTT5=
EXTT6=
PLAYORDER=
